<?xml version="1.0" encoding="UTF-8" standalone="no"?>
<svg
   xmlns:osb="http://www.openswatchbook.org/uri/2009/osb"
   xmlns:dc="http://purl.org/dc/elements/1.1/"
   xmlns:cc="http://creativecommons.org/ns#"
   xmlns:rdf="http://www.w3.org/1999/02/22-rdf-syntax-ns#"
   xmlns:svg="http://www.w3.org/2000/svg"
   xmlns="http://www.w3.org/2000/svg"
   id="svg8"
   version="1.1"
   viewBox="0 0 65.341698 65.607193"
   height="65.607193mm"
   width="65.341698mm">
  <defs
     id="defs2">
    <linearGradient
       osb:paint="solid"
       id="linearGradient2433">
      <stop
         id="stop2431"
         offset="0"
         style="stop-color:#803300;stop-opacity:1;" />
    </linearGradient>
  </defs>
  <metadata
     id="metadata5">
    <rdf:RDF>
      <cc:Work
         rdf:about="">
        <dc:format>image/svg+xml</dc:format>
        <dc:type
           rdf:resource="http://purl.org/dc/dcmitype/StillImage" />
        <dc:title></dc:title>
      </cc:Work>
    </rdf:RDF>
  </metadata>
  <g
     transform="translate(-57.01783,-31.956523)"
     id="layer1">
    <path
       id="circle90"
       transform="scale(0.26458333)"
       d="m 342.375,124.63086 c -1.11265,0.05 -2.43,0.3408 -3.91016,0.68945 -0.22931,0.054 -0.46073,0.11337 -0.69336,0.17774 -6.49389,1.9159 -12.78679,7.22848 -16.42773,12.47265 -3.1864,4.58947 -3.38218,9.63041 -10.08203,11.73633 -6.39452,2.96962 -5.38826,-5.67645 -8.71484,-15.12891 -0.38137,-1.08354 -2.08004,-3.31429 -2.73633,-3.1289 -1.23524,0.34895 -2.60806,1.33823 -4.20117,2.52344 -5.36119,3.98848 -9.45441,11.53233 -11.00586,18.01367 -1.29685,5.41764 0.28935,10.33969 -5.34571,14.72656 -5.05259,5.10014 -7.11063,-3.48515 -13.53125,-11.25586 -0.73746,-0.89248 -3.11718,-2.41558 -3.66797,-2.01758 -1.03903,0.75082 -1.98443,2.1515 -3.07617,3.8125 -3.66466,5.57557 -5.00232,14.11991 -4.32422,20.75782 0.5686,5.56589 3.6807,9.67902 -0.21093,15.65625 -3.09349,6.4331 -7.84177,-0.93993 -16.45313,-6.13672 -0.98866,-0.59662 -3.72551,-1.24101 -4.11133,-0.68164 -0.72711,1.05419 -1.15196,2.69191 -1.625,4.62109 -1.59184,6.49195 0.0179,14.94348 2.92774,20.89258 2.45649,5.02226 6.74134,7.66814 5.31836,14.5332 -0.516,6.99896 -7.57503,1.92485 -17.47266,0.22461 -1.13322,-0.19464 -3.91262,0.20816 -4.07227,0.87891 -0.2998,1.25978 -0.10635,2.95681 0.15625,4.94726 0.50154,3.8013 2.30103,8.02581 4.83789,11.76563 1.79958,2.62025 3.84867,4.86616 5.88086,6.61133 4.27148,3.6682 9.24685,4.33939 10.66993,11.20507 2.30989,6.63004 -6.16833,4.80446 -15.9043,7.21289 -1.11521,0.2759 -3.49506,1.75637 -3.37109,2.42969 0.23308,1.26611 1.09119,2.72967 2.125,4.42969 3.48318,5.72784 10.61551,10.47805 16.92187,12.58789 5.27512,1.76483 10.28776,0.60368 14.16992,6.56641 4.64338,5.44674 -4.06615,6.77325 -12.33984,12.50586 -0.94998,0.65825 -2.66616,2.89774 -2.31641,3.48046 0.6596,1.09897 1.97362,2.16057 3.53516,3.38868 5.24268,4.12322 13.63738,6.16823 20.3164,6.04687 5.59234,-0.10161 9.97304,-2.86081 15.61719,1.5332 6.17297,3.6405 -1.60763,7.75264 -7.5332,15.9004 -0.6805,0.93575 -1.56083,3.61222 -1.03711,4.04492 0.98755,0.81589 2.58131,1.38086 4.46289,2.01953 6.32487,2.14689 14.90579,1.28958 21.10547,-1.06055 5.22565,-1.9809 8.29427,-6.00809 15.00586,-3.89844 6.92801,1.21999 1.17982,7.73006 -1.48242,17.39258 -0.30505,1.10722 -0.17888,3.90682 0.46875,4.12891 1.2175,0.41748 2.91567,0.388 4.91015,0.32031 6.74071,-0.22887 14.40387,-4.13408 19.28321,-8.73828 1.25509,-1.18434 2.29286,-2.57858 3.33007,-3.90039 2.22023,-2.80286 4.3391,-5.12441 8.96094,-5.58203 6.82397,-1.5995 4.16296,6.63703 5.59375,16.60156 0.1638,1.14051 1.40329,3.65677 2.08985,3.59766 1.28966,-0.11108 2.83914,-0.82782 4.63867,-1.69727 6.07097,-2.93321 11.46865,-9.58825 14.13672,-15.66406 2.23521,-5.09008 1.51282,-10.15401 7.76171,-13.48828 5.80215,-4.13626 6.37338,4.62622 11.36133,13.34765 0.57253,1.00096 2.6508,2.89981 3.26172,2.60157 1.15166,-0.56222 2.32254,-1.77943 3.67969,-3.22852 4.55871,-4.8676 7.30059,-13.04586 7.73633,-19.71289 0.36446,-5.57627 -2.02335,-10.17937 2.82812,-15.44727 4.14936,-5.86445 7.6024,2.25442 15.23047,8.85157 0.87625,0.75777 3.47342,1.86387 3.94922,1.3789 0.89749,-0.91478 1.59555,-2.45633 2.39258,-4.27734 2.67696,-6.11644 2.56155,-14.75435 0.76953,-21.15234 -1.50781,-5.38333 -5.25378,-8.83982 -2.50391,-15.35157 1.88372,-6.81021 7.82992,-0.45419 17.19922,3.11133 1.07441,0.40886 3.8719,0.55103 4.15235,-0.0703 0.52781,-1.16915 0.65558,-2.85813 0.77539,-4.84375 0.40441,-6.70055 -2.72921,-14.69479 -6.76563,-19.98438 -3.41329,-4.47302 -8.14474,-6.16971 -8.23242,-13.19726 -0.83909,-6.97546 7.08322,-3.46075 17.2207,-3.85352 1.15945,-0.045 3.80299,-1.02676 3.81055,-1.72265 0.0171,-1.3059 -0.54614,-2.93455 -1.23828,-4.82618 -2.33806,-6.38991 -8.45688,-12.42097 -14.2461,-15.64648 -4.86183,-2.70885 -9.93328,-2.44117 -12.67578,-8.93555 -3.57842,-6.11829 5.16305,-5.91151 14.27735,-10.09765 1.04545,-0.48022 3.11449,-2.37819 2.87109,-3.01368 -0.45865,-1.19708 -1.567,-2.47235 -2.89062,-3.95117 -4.44972,-4.97141 -12.34204,-8.3953 -18.94336,-9.38867 -5.518,-0.83035 -10.30359,1.16534 -15.15235,-4.09961 -5.507,-4.62007 2.88173,-7.38709 10.09375,-14.43945 0.82844,-0.81012 2.14815,-3.30906 1.70508,-3.82422 -0.83588,-0.97188 -2.31304,-1.79611 -4.06055,-2.74414 -5.86673,-3.18273 -14.49101,-3.79928 -21.03515,-2.56445 -5.49646,1.03714 -9.30367,4.47659 -15.57032,1.13281 -6.64536,-2.50804 0.25377,-7.8661 4.66407,-16.88477 0.50608,-1.0349 0.90437,-3.81135 0.3125,-4.14648 -1.11474,-0.63111 -2.78225,-0.91084 -4.7461,-1.21094 -6.61738,-1.01121 -14.87554,1.3564 -20.52148,4.82813 -4.77186,2.93425 -6.95884,7.4539 -13.92969,6.76367 -7.02292,0.22921 -2.68934,-7.35605 -2.00976,-17.42969 0.0777,-1.15237 -0.61404,-3.89508 -1.30469,-3.98828 -0.324,-0.0437 -0.67209,-0.0538 -1.04297,-0.0371 z m -4.60352,109.7793 a 10.300314,10.300314 0 0 1 10.30079,10.30078 10.300314,10.300314 0 0 1 -10.30079,10.30078 10.300314,10.300314 0 0 1 -10.29882,-10.30078 10.300314,10.300314 0 0 1 10.29882,-10.30078 z"
       style="opacity:1;vector-effect:none;fill:#999999;fill-opacity:1;stroke:#000000;stroke-width:1.88999808;stroke-linecap:butt;stroke-linejoin:miter;stroke-miterlimit:4;stroke-dasharray:none;stroke-dashoffset:0;stroke-opacity:1;paint-order:stroke fill markers" />
    <path
       id="path2637"
       transform="scale(0.26458333)"
       d="m 342.375,124.63086 c -1.11265,0.05 -2.43,0.3408 -3.91016,0.68945 -0.22931,0.054 -0.46073,0.11337 -0.69336,0.17774 -6.49389,1.9159 -12.78679,7.22848 -16.42773,12.47265 -0.92107,1.32665 -1.59157,2.68557 -2.24219,4.00586 l 17.88282,92.4668 a 10.300314,10.300314 0 0 1 0.7871,-0.0332 10.300314,10.300314 0 0 1 4.64649,1.11914 l 37.66992,-101.16602 c -6.41446,-0.61521 -14.08676,1.67598 -19.42578,4.95899 -4.77186,2.93425 -6.95884,7.4539 -13.92969,6.76367 -7.02292,0.22921 -2.68934,-7.35605 -2.00976,-17.42969 0.0777,-1.15237 -0.61404,-3.89508 -1.30469,-3.98828 -0.324,-0.0437 -0.67209,-0.0538 -1.04297,-0.0371 z m -7.92773,129.81836 -32.05079,86.07812 c 2.49317,-1.23148 5.10513,-1.99441 8.86524,-0.8125 6.92801,1.21999 1.17982,7.73006 -1.48242,17.39258 -0.30505,1.10722 -0.17888,3.90682 0.46875,4.12891 1.2175,0.41748 2.91567,0.388 4.91015,0.32031 6.74071,-0.22887 14.40387,-4.13408 19.28321,-8.73828 1.25509,-1.18434 2.29286,-2.57858 3.33007,-3.90039 2.22023,-2.80286 4.3391,-5.12441 8.96094,-5.58203 6.82397,-1.5995 4.16296,6.63703 5.59375,16.60156 0.1638,1.14051 1.40329,3.65677 2.08985,3.59766 1.28966,-0.11108 2.83914,-0.82782 4.63867,-1.69727 0.61875,-0.29895 1.22749,-0.64586 1.83008,-1.01758 L 340.35742,254.67383 a 10.300314,10.300314 0 0 1 -2.58594,0.33789 10.300314,10.300314 0 0 1 -3.32421,-0.5625 z"
       style="opacity:0.12000002;fill:#ffffff;stroke:none;stroke-width:0.99999994px;stroke-linecap:butt;stroke-linejoin:miter;stroke-opacity:1" />
    <path
       id="path2640"
       transform="scale(0.26458333)"
       d="m 377.31641,134.26758 c -0.11569,0.003 -0.2335,0.0131 -0.34961,0.0176 l -0.002,0.004 c 0.17849,-0.007 0.35771,-0.0165 0.53516,-0.0195 -0.0618,0.001 -0.12161,-0.003 -0.18359,-0.002 z m 1.73437,0.0254 c 0.19024,0.009 0.37806,0.0252 0.56641,0.0391 -0.18864,-0.0138 -0.37587,-0.0301 -0.56641,-0.0391 z m 1.03125,0.0859 -37.66406,101.15039 a 10.300314,10.300314 0 0 0 -0.26367,-0.12305 10.300314,10.300314 0 0 1 4.01367,3.35937 l 68.28906,-56.44726 c -1.55638,-0.52986 -3.0932,-1.46657 -4.63672,-3.14258 -5.507,-4.62007 2.88173,-7.38709 10.09375,-14.43945 0.82844,-0.81012 2.14815,-3.30906 1.70508,-3.82422 -0.83588,-0.97188 -2.31304,-1.79611 -4.06055,-2.74414 -5.86673,-3.18273 -14.49101,-3.79928 -21.03515,-2.56445 -5.49646,1.03714 -9.30367,4.47659 -15.57032,1.13281 -6.64534,-2.50804 0.25377,-7.8661 4.66407,-16.88477 0.50608,-1.0349 0.90437,-3.81135 0.3125,-4.14648 -1.11474,-0.63111 -2.78225,-0.91084 -4.7461,-1.21094 -0.35963,-0.0549 -0.73293,-0.08 -1.10156,-0.11523 z m -50.30859,116.8125 -81.10352,67.03906 c 4.70761,2.03576 10.26345,3.03084 14.9707,2.94531 5.59234,-0.10161 9.97304,-2.86081 15.61719,1.5332 6.17297,3.6405 -1.60763,7.75264 -7.5332,15.9004 -0.6805,0.93573 -1.56083,3.61222 -1.03711,4.04492 0.98755,0.81589 2.58131,1.38086 4.46289,2.01953 6.32487,2.14689 14.90579,1.28958 21.10547,-1.06055 2.29888,-0.87144 4.18369,-2.12956 6.14258,-3.09375 l 32.04883,-86.07031 a 10.300314,10.300314 0 0 0 0.28125,0.0918 10.300314,10.300314 0 0 1 -4.95508,-3.34961 z m -24.3711,88.20898 c -0.16545,0.0392 -0.32636,0.0883 -0.48828,0.13477 0.1623,-0.046 0.32245,-0.096 0.48828,-0.13477 z"
       style="opacity:0.197;fill:#ffffff;stroke:none;stroke-width:0.99999994px;stroke-linecap:butt;stroke-linejoin:miter;stroke-opacity:1" />
    <path
       d="m 119.21152,63.806602 c 0.77301,0.208128 1.54535,0.437336 2.31654,0.68801 -0.10967,-0.533427 -0.23306,-1.05898 -0.36955,-1.576518 -0.76014,-0.265184 -1.52189,-0.504987 -2.28454,-0.719969 0.12827,0.528985 0.24104,1.065245 0.33755,1.608477 z m -2.55988,-10.568988 c 0.78731,-0.103039 1.57906,-0.188792 2.3748,-0.256873 -0.29441,-0.440268 -0.59847,-0.870996 -0.91156,-1.292042 -0.79616,0.04469 -1.58756,0.110416 -2.37346,0.19663 0.31457,0.441035 0.61824,0.891898 0.91022,1.352285 z m -6.17191,-8.980507 c 0.71121,-0.36538 1.432,-0.717267 2.1619,-1.055277 -0.42701,-0.313014 -0.85961,-0.61482 -1.29719,-0.905276 -0.73896,0.312888 -1.46677,0.642482 -2.18271,0.988223 0.44592,0.311832 0.8855,0.636043 1.318,0.97233 z m -8.81115,-6.419216 c 0.54475,-0.578894 1.10419,-1.14809 1.67787,-1.707202 -0.50749,-0.151663 -1.01651,-0.290452 -1.52644,-0.416224 -0.58854,0.539423 -1.15955,1.091214 -1.71229,1.654815 0.52229,0.141374 1.04282,0.297679 1.56086,0.468611 z M 91.191014,34.952775 c 0.287893,-0.743582 0.595614,-1.48126 0.922691,-2.212648 -0.53585,0.04378 -1.069164,0.102108 -1.599321,0.175117 -0.344893,0.724289 -0.665859,1.456609 -0.962177,2.196401 0.543678,-0.07034 1.090199,-0.123194 1.638807,-0.15887 z M 80.39143,36.447007 c -0.02983,-0.792204 -0.04142,-1.587579 -0.03439,-2.385652 -0.466754,0.253108 -0.924385,0.516888 -1.37275,0.79072 -0.02887,0.795893 -0.03562,1.588617 -0.0208,2.377449 0.46689,-0.273155 0.942969,-0.534246 1.427935,-0.782517 z m -9.468825,5.360111 c -0.304372,-0.73871 -0.594304,-1.485714 -0.869409,-2.240543 -0.348024,0.398746 -0.685257,0.804099 -1.011557,1.21544 0.249745,0.762003 0.517279,1.51445 0.802045,2.256618 0.348,-0.418234 0.707742,-0.828991 1.078921,-1.231515 z M 63.77187,50.04966 c -0.530093,-0.594834 -1.04954,-1.203089 -1.557954,-1.824293 -0.195198,0.49226 -0.377937,0.987062 -0.548076,1.483788 0.486696,0.634887 0.986844,1.25383 1.499887,1.856109 0.187856,-0.508344 0.390005,-1.013797 0.606143,-1.515604 z m -3.859836,10.152166 c -0.706988,-0.360578 -1.407123,-0.739703 -2.100019,-1.136902 -0.0083,0.533647 -0.0024,1.065774 0.01769,1.59576 0.681978,0.414545 1.373073,0.806759 2.072724,1.175922 -0.01354,-0.543482 -0.01024,-1.08866 0.0096,-1.63478 z m 0.381836,10.906596 c -0.791457,-0.04644 -1.584802,-0.112064 -2.379564,-0.197256 0.208555,0.491109 0.428797,0.973512 0.660107,1.447065 0.7898,0.105039 1.578026,0.186867 2.363958,0.246041 -0.228297,-0.490166 -0.443382,-0.988884 -0.644501,-1.49585 z m 4.487506,9.896343 c -0.760556,0.240314 -1.528126,0.465238 -2.302239,0.674387 0.367224,0.380903 0.742071,0.751432 1.123921,1.111444 0.779216,-0.183996 1.550471,-0.386867 2.313045,-0.608054 -0.387118,-0.38159 -0.765612,-0.774283 -1.134727,-1.177777 z m 7.61314,7.821455 c -0.639276,0.478241 -1.290691,0.944886 -1.953774,1.399551 0.473768,0.2366 0.951095,0.461159 1.431361,0.673535 0.675406,-0.431365 1.336464,-0.877266 1.982455,-1.337147 C 73.363589,89.3304 72.876656,89.084986 72.394516,88.82622 Z m 9.765964,4.773756 c -0.427616,0.667342 -0.872496,1.326882 -1.334169,1.978236 0.528187,0.0582 1.05587,0.102695 1.582427,0.133338 0.47837,-0.637065 0.936006,-1.284329 1.372188,-1.941235 -0.539851,-0.04067 -1.080252,-0.09755 -1.620446,-0.170339 z m 10.886177,0.740889 c -0.125757,0.78506 -0.271646,1.570727 -0.438052,2.35653 0.513333,-0.160744 1.018377,-0.334191 1.514988,-0.519721 0.183808,-0.77788 0.34332,-1.555782 0.479095,-2.332987 -0.510864,0.180002 -1.029642,0.345647 -1.556031,0.496178 z m 10.263063,-3.554103 c 0.1732,0.776755 0.33007,1.559241 0.47021,2.34699 0.41165,-0.332444 0.81334,-0.673526 1.20494,-1.022628 -0.11565,-0.790602 -0.25125,-1.57484 -0.40625,-2.351993 -0.4126,0.352566 -0.83567,0.695362 -1.2689,1.027631 z m 8.43137,-6.922937 c 0.42334,0.678069 0.83413,1.366996 1.232,2.06631 0.27587,-0.452019 0.54012,-0.908613 0.7926,-1.369162 -0.37343,-0.710098 -0.76248,-1.407445 -1.1666,-2.091322 -0.27308,0.470161 -0.55918,0.935137 -0.858,1.394174 z m 5.62688,-9.318961 c 0.62464,0.489003 1.24054,0.99399 1.8473,1.514488 0.106,-0.519469 0.1987,-1.039449 0.27797,-1.559321 -0.58954,-0.536368 -1.19037,-1.053599 -1.80193,-1.550973 -0.0923,0.532784 -0.20019,1.064972 -0.32334,1.595806 z"
       style="opacity:1;vector-effect:none;fill:#916f6f;fill-opacity:1;stroke:#000000;stroke-width:0.50006199;stroke-linecap:butt;stroke-linejoin:miter;stroke-miterlimit:4;stroke-dasharray:none;stroke-dashoffset:0;stroke-opacity:1;paint-order:stroke fill markers"
       id="path53" />
    <circle
       r="4.7081947"
       cy="64.746368"
       cx="89.368874"
       id="path70"
       style="opacity:1;vector-effect:none;fill:none;fill-opacity:1;stroke:#000000;stroke-width:0.08118929;stroke-linecap:butt;stroke-linejoin:miter;stroke-miterlimit:4;stroke-dasharray:none;stroke-dashoffset:0;stroke-opacity:1;paint-order:stroke fill markers" />
  </g>
</svg>
